<svg width="28" height="28" viewBox="0 0 28 28" fill="none" xmlns="http://www.w3.org/2000/svg">
<path d="M12.1244 10.9258C12.2881 10.7621 12.5536 10.7621 12.7173 10.9258L17.0741 15.2826C17.2379 15.4464 17.2379 15.7119 17.0741 15.8756L10.3585 22.5913C8.99162 23.9581 6.77554 23.9581 5.40872 22.5913C4.04188 21.2245 4.04188 19.0084 5.40872 17.6415L12.1244 10.9258Z" stroke="#F4FFEB" stroke-width="2"/>
<path d="M24.8391 13.0604C25.0427 12.8568 25.0427 12.5267 24.8391 12.3232L15.6768 3.16088C15.4732 2.95732 15.1432 2.95732 14.9396 3.16088L14.4832 3.61725C11.7496 6.35094 11.7496 10.783 14.4832 13.5167C17.2169 16.2504 21.6491 16.2504 24.3827 13.5167L24.8391 13.0604Z" stroke="#F4FFEB" stroke-width="2"/>
<path d="M11.5959 16.404L10.771 17.229" stroke="#F4FFEB" stroke-width="2" stroke-linecap="round" stroke-linejoin="round"/>
<path d="M16.1332 10.2169L17.7831 11.8668" stroke="#F4FFEB" stroke-width="2" stroke-linecap="round" stroke-linejoin="round"/>
</svg>
